<svg xmlns="http://www.w3.org/2000/svg" viewBox="0 0 64 64">
  <defs>
    <linearGradient id="g" x1="0" x2="1" y1="0" y2="1">
      <stop offset="0" stop-color="#dff3ec"/>
      <stop offset="1" stop-color="#74b8a7"/>
    </linearGradient>
  </defs>
  <rect width="64" height="64" rx="16" fill="url(#g)"/>
  <!-- Side-view tanker ship -->
  <path d="M8 38 L14 38 L14 28 L18 24 L48 24 L52 28 L52 38 L56 38 L52 46 L12 46 L8 38Z" fill="#0f4d46"/>
  <rect x="16" y="26" width="8" height="8" rx="1.5" fill="#dff3ec" opacity=".85"/>
  <rect x="26" y="26" width="8" height="8" rx="1.5" fill="#dff3ec" opacity=".85"/>
  <rect x="36" y="26" width="8" height="8" rx="1.5" fill="#dff3ec" opacity=".85"/>
  <rect x="30" y="18" width="4" height="7" rx="1" fill="#1e5a51"/>
  <path d="M8 51c5 3 10 3 15 0 5 3 10 3 15 0 5 3 10 3 15 0" fill="none" stroke="#0f4d46" stroke-width="3" stroke-linecap="round" opacity=".5"/>
  <!-- Oil droplet accent -->
  <circle cx="52" cy="16" r="6" fill="#d36a38" opacity=".85"/>
</svg>
